<?xml version="1.0" encoding="UTF-8"?>
<svg width="20px" height="20px" viewBox="0 0 20 20" version="1.1" xmlns="http://www.w3.org/2000/svg" xmlns:xlink="http://www.w3.org/1999/xlink">
    <!-- Generator: Sketch 52.2 (67145) - http://www.bohemiancoding.com/sketch -->
    <title>права_доступа ico</title>
    <desc>Created with Sketch.</desc>
    <g id="права_доступа-ico" stroke="none" stroke-width="1" fill="none" fill-rule="evenodd">
        <path d="M15.9567493,9.11460055 C16.5121212,9.11460055 16.9633609,9.56584022 16.9633609,10.1212121 L16.9633609,16.6044077 C16.9633609,18.2666667 15.6096419,19.6203857 13.9473829,19.6203857 L6.04490358,19.6203857 C4.38264463,19.6203857 3.02892562,18.2666667 3.02892562,16.6044077 L3.02892562,10.1212121 C3.02892562,9.56584022 3.48016529,9.11460055 4.03553719,9.11460055 L14.6415978,9.11460055 L14.6415978,6.68870523 C14.6415978,4.12396694 12.5550964,2.04132231 9.99421488,2.04132231 C7.42947658,2.04132231 5.34683196,4.12782369 5.34683196,6.68870523 C5.34683196,6.97796143 5.115427,7.20936639 4.8261708,7.20936639 C4.5369146,7.20936639 4.30550964,6.97796143 4.30550964,6.68870523 C4.30550964,3.54931129 6.85867769,1 9.99421488,1 C13.1336088,1 15.6829201,3.55316804 15.6829201,6.68870523 L15.6829201,9.11460055 L15.9567493,9.11460055 Z M15.9220386,16.6044077 L15.9220386,10.1559229 L4.07410468,10.1559229 L4.07410468,16.6044077 C4.07410468,17.6958678 4.96115702,18.5790634 6.04876033,18.5790634 L13.9473829,18.5790634 C15.038843,18.5790634 15.9220386,17.692011 15.9220386,16.6044077 Z M9.99807163,16.3922865 C8.92203857,16.3922865 8.05041322,15.5168044 8.05041322,14.4446281 C8.05041322,13.3724518 8.92203857,12.4969697 9.99807163,12.4969697 C11.0702479,12.4969697 11.94573,13.368595 11.94573,14.4446281 C11.94573,15.5168044 11.0741047,16.3922865 9.99807163,16.3922865 Z M9.99807163,13.5344353 C9.49669421,13.5344353 9.09173554,13.9471074 9.09173554,14.4446281 C9.09173554,14.9421488 9.49669421,15.3509642 9.99807163,15.3509642 C10.499449,15.3509642 10.9044077,14.938292 10.9044077,14.4407713 C10.9044077,13.9432507 10.499449,13.5344353 9.99807163,13.5344353 Z" id="Combined-Shape" stroke="#53BE4F" stroke-width="0.2" fill="#53BE4F" fill-rule="nonzero"></path>
    </g>
</svg>