<?xml version="1.0" encoding="UTF-8"?>
<svg width="20px" height="20px" viewBox="0 0 20 20" version="1.1" xmlns="http://www.w3.org/2000/svg" xmlns:xlink="http://www.w3.org/1999/xlink">
    <!-- Generator: Sketch 52.2 (67145) - http://www.bohemiancoding.com/sketch -->
    <title>угоди_icon</title>
    <desc>Created with Sketch.</desc>
    <g id="угоди_icon" stroke="none" stroke-width="1" fill="none" fill-rule="evenodd">
        <g id="handshake" transform="translate(1.000000, 4.000000)" fill="#53BE4F" fill-rule="nonzero" stroke="#4EC048" stroke-width="0.3">
            <path d="M18,3.38444987 C17.9995781,3.08334733 17.9192109,2.77798372 17.7414961,2.52627083 L16.3152773,0.515511719 C16.0763906,0.181289063 15.7129102,0.011117513 15.3496758,0.0104589844 C15.1335,0.0104589844 14.9133867,0.0715084635 14.7189023,0.205151042 L13.3282617,1.1584681 C13.1820117,1.2612373 12.9312773,1.33177734 12.6890859,1.32995671 C12.5009297,1.33084766 12.3191016,1.28936035 12.199043,1.22401107 L10.8372305,0.497189128 C10.6175742,0.380668294 10.3727109,0.332905599 10.1264766,0.332440755 C9.77283984,0.334261393 9.41470312,0.430019206 9.12691406,0.649774089 L8.96800781,0.772609049 C8.84098828,0.702766276 8.64689062,0.596355794 8.42702344,0.475806315 C8.16335156,0.333370443 7.85330859,0.275923503 7.54013672,0.27480013 C7.25723437,0.275691081 6.97440234,0.323724935 6.72605859,0.439316081 L5.79849609,0.875416992 C5.64753516,0.947545247 5.40741797,0.994649414 5.16891797,0.993487305 C4.93041797,0.994610677 4.69072266,0.94750651 4.53976172,0.875416992 L3.61135547,0.439083659 C3.44200781,0.359517904 3.26098828,0.325506836 3.08158594,0.325274414 C2.87500781,0.325506836 2.66966016,0.370364258 2.47879687,0.455546875 C2.28817969,0.541194336 2.11123828,0.667631836 1.97033203,0.841134766 L0.280019531,2.92696615 C0.092671875,3.15748991 -0.00038671875,3.44778483 3.12249802e-16,3.73354753 C-0.00038671875,4.07431673 0.131941406,4.41617057 0.387175781,4.65575879 L1.96393359,6.13799056 L1.21594922,6.99775781 C1.00975781,7.23486686 0.907101563,7.54228353 0.907101563,7.8462526 C0.906714844,8.16966764 1.02329297,8.49622038 1.25419922,8.73666081 L1.40593359,8.89552116 C1.54891406,9.04496842 1.72072266,9.14002897 1.90051172,9.19073568 C1.81033594,9.37349674 1.76104687,9.57388314 1.76143359,9.7746569 C1.76104687,10.0983044 1.877625,10.4246247 2.10810937,10.6653363 L2.25991406,10.8246615 C2.47654687,11.0509242 2.757375,11.16361 3.03405469,11.1634163 C3.18276562,11.1636488 3.33165234,11.1307223 3.47157422,11.066264 C3.5206875,11.2857865 3.62211328,11.4944626 3.78165234,11.6612253 L3.93384375,11.8207829 C4.15047656,12.0470456 4.43084766,12.1597314 4.70798437,12.1595378 C4.92461719,12.1597702 5.14223437,12.0894238 5.32958203,11.952876 C5.38439062,12.1471419 5.47829297,12.3312588 5.62123828,12.4808997 L5.77342969,12.6404574 C5.98960547,12.8667201 6.27043359,12.9794059 6.54718359,12.9792122 C6.84189844,12.9794447 7.13953125,12.8518838 7.35936328,12.5990088 L8.02044141,11.8383695 L8.91857812,12.7542666 C9.13355859,12.9739827 9.4095,13.0832985 9.68189062,13.08264 C9.98114062,13.0833372 10.2830273,12.9512441 10.5033164,12.6913965 L10.6466836,12.5221546 C10.7704336,12.3756901 10.8512227,12.2023421 10.8980859,12.0214017 L11.2459922,12.3752253 C11.4613594,12.5940505 11.7369141,12.7029014 12.008918,12.7026689 C12.3085547,12.7029014 12.6112852,12.5708083 12.8317852,12.3107669 L12.9743437,12.1417188 C13.1389805,11.9479176 13.2316523,11.7078646 13.2602695,11.4626982 C13.3520977,11.4886133 13.4451562,11.5061999 13.5390234,11.5061999 C13.8386602,11.5061999 14.1405469,11.3743392 14.3612578,11.1145303 L14.5042383,10.9454821 C14.7040664,10.7094964 14.8034883,10.4068444 14.8030664,10.1084535 C14.8030664,10.0158333 14.7910078,9.92367806 14.772375,9.83260742 C15.0208945,9.79631087 15.2618555,9.67417318 15.4450898,9.4573623 L15.588457,9.28812044 C15.7882852,9.05213477 15.8872852,8.74948275 15.8872852,8.45085938 C15.8876719,8.12229232 15.7674375,7.79074251 15.530168,7.54917871 L15.2620312,7.27627669 L17.6821172,4.32800521 C17.8993828,4.06257943 17.9996133,3.72091927 18,3.38444987 Z M2.18017969,8.5633903 C2.05196484,8.56296419 1.9265625,8.51245117 1.82858203,8.41014681 L1.67660156,8.25128646 C1.57144922,8.14173828 1.51952344,7.99597103 1.51910156,7.84629134 C1.51952344,7.70590853 1.56512109,7.5688571 1.65902344,7.46089714 L3.19099219,5.69941048 C3.29080078,5.58467155 3.42397266,5.52722461 3.56058984,5.52703092 C3.68841797,5.52726335 3.81339844,5.57797005 3.9121875,5.68050684 L4.06353516,5.83959961 C4.06353516,5.83959961 4.22022656,6.09491504 4.22061328,6.24478841 C4.22022656,6.35700944 4.18953516,6.4663252 4.13001562,6.56099837 C4.12491797,6.56661523 2.47654688,8.45949772 2.47654688,8.45949772 C2.38900781,8.52775228 2.28550781,8.56288672 2.18017969,8.5633903 Z M3.4036875,10.3203835 C3.30408984,10.4346576 3.17112891,10.4918721 3.03451172,10.4923369 C2.90629688,10.4921045 2.78128125,10.4413978 2.68291406,10.3390934 L2.53072266,10.1797295 L2.53033594,10.1794971 C2.42602734,10.0704137 2.37364453,9.92418164 2.37364453,9.77450195 C2.37364453,9.63411914 2.41966406,9.49706771 2.51310938,9.38910775 C2.51310938,9.38910775 4.55519531,7.0468763 4.57238672,7.02429264 C4.66998047,6.92086491 4.79573438,6.86744661 4.92560156,6.86721419 C5.05381641,6.86744661 5.17883203,6.9179209 5.27719922,7.02045768 L5.42939063,7.1800153 C5.53408594,7.28909863 5.58608203,7.43513704 5.58646875,7.58501042 C5.58604688,7.72539323 5.5400625,7.86263835 5.44654688,7.97059831 L3.4036875,10.3203835 Z M5.07737109,11.3162337 C4.97798438,11.430779 4.84505859,11.488071 4.70840625,11.4884971 C4.58019141,11.4882646 4.45517578,11.4375579 4.35680859,11.3350212 L4.20419531,11.1756572 C4.0995,11.0663415 4.04711719,10.9203418 4.04711719,10.7706621 C4.04711719,10.6453867 4.08578906,10.5238688 4.15979297,10.4226878 L5.58193359,8.78717383 C5.677875,8.69184212 5.79810937,8.64160026 5.92270312,8.64160026 C6.05091797,8.64183268 6.17593359,8.69230697 6.27430078,8.79484375 L6.42691406,8.95440137 C6.53122266,9.0634847 6.58360547,9.20952311 6.58399219,9.35916406 C6.58357031,9.49981803 6.53716406,9.63706315 6.44407031,9.74475195 L5.07737109,11.3162337 Z M7.77955078,11.1436217 L6.91660547,12.1359857 C6.81718359,12.2504535 6.68404687,12.3077454 6.54742969,12.3081715 C6.41921484,12.3079391 6.29419922,12.2572324 6.19583203,12.1546956 L6.04364063,11.9953317 C5.93933203,11.8862484 5.88694922,11.7400163 5.8865625,11.5903366 C5.88694922,11.4496826 5.93296875,11.3124375 6.02648437,11.2049424 L6.88904297,10.2126172 C6.98885156,10.0981494 7.12202344,10.0406637 7.25864062,10.0404313 C7.38646875,10.0406637 7.51187109,10.091138 7.61023828,10.1939072 L7.76285156,10.3532712 C7.86716016,10.4623545 7.91912109,10.6083929 7.91954297,10.7580339 C7.91905078,10.8986491 7.87303125,11.0358942 7.77955078,11.1436217 Z M15.2761992,8.45175033 C15.2760234,8.5895765 15.2311992,8.72457487 15.1403906,8.83183757 L14.9974102,9.00088574 C14.8976016,9.11852995 14.7621797,9.17802995 14.6235234,9.17826237 C14.4977344,9.17802995 14.374582,9.12933757 14.2768477,9.02978353 L11.8674141,6.57459505 L11.4507773,7.06612858 L14.0297695,9.69865495 C14.1371719,9.80820312 14.1911367,9.95695312 14.1919453,10.1088408 C14.1911367,10.2472093 14.1467344,10.3819753 14.0561367,10.4892767 L13.9135781,10.6583249 C13.8137695,10.7759691 13.6783477,10.8352367 13.5396914,10.8357015 C13.4139023,10.8352754 13.2903633,10.7863506 13.1934023,10.6874163 L10.7833359,8.2322666 L10.3671211,8.72380013 L12.505957,10.9031426 C12.6090352,11.0119935 12.6618398,11.1569085 12.6618398,11.3056198 C12.6618398,11.4435622 12.6174375,11.5785218 12.5268398,11.6855908 L12.3838594,11.854639 C12.2844375,11.9722832 12.1486289,12.0317832 12.0095859,12.0322093 C11.883375,12.0317832 11.7602578,11.9828584 11.6629102,11.8839242 L9.52836328,9.71248405 L9.52797656,9.71248405 L9.52758984,9.71205794 L9.11218359,10.2044824 L9.11260547,10.2049085 L9.12058594,10.213237 L10.1896875,11.300429 C10.2843984,11.4076917 10.3334766,11.5451693 10.3338633,11.6873727 C10.3334766,11.8246178 10.2894609,11.9589189 10.1988633,12.0660267 L10.0558828,12.2352686 C9.95607422,12.3529128 9.82107422,12.4119479 9.68280469,12.4124128 C9.55701563,12.4119867 9.43386328,12.3632943 9.33651562,12.2639339 L8.40568359,11.3142194 C8.48668359,11.1391283 8.53189453,10.9491234 8.53189453,10.75846 C8.53228125,10.4350449 8.41570312,10.108957 8.18521875,9.86805176 L8.03260547,9.70849414 C7.81642969,9.48242513 7.53598828,9.36954557 7.25927344,9.36997168 C7.23779297,9.36997168 7.21613672,9.37539486 7.19507812,9.37675065 C7.19507812,9.37113379 7.19627344,9.36524577 7.19627344,9.35962891 C7.19666016,9.03621387 6.84959766,8.46875586 6.84959766,8.46875586 L6.69740625,8.30966309 C6.53561719,8.14061491 6.33821484,8.03517285 6.13290234,7.9927946 C6.17523047,7.86074023 6.19917187,7.7232627 6.19917187,7.58555273 C6.19917187,7.2621377 6.08298047,6.93577865 5.85249609,6.69514453 L5.70030469,6.53558691 C5.48367187,6.30932422 5.20330078,6.19640592 4.92655078,6.19663835 C4.89424219,6.19663835 4.86235547,6.20384342 4.83022266,6.20701986 C4.82143359,5.89646549 4.70791406,5.58614355 4.48702734,5.35492253 L4.48702734,5.3546901 L4.33525781,5.19582975 C4.118625,4.96933464 3.83825391,4.85641634 3.56150391,4.85664876 C3.26633203,4.85641634 2.96915625,4.98397721 2.74932422,5.23685221 L2.38770703,5.65265495 L0.785777344,4.14718099 C0.670640625,4.0385625 0.613160156,3.88845671 0.612738281,3.73432227 C0.613125,3.60517318 0.653027344,3.47873568 0.738105469,3.37375846 L2.42838281,1.28796582 C2.49546094,1.20502995 2.59467187,1.12999642 2.71086328,1.07789518 C2.82705469,1.02583268 2.95896094,0.997244792 3.08228906,0.997438477 C3.18969141,0.997438477 3.29048437,1.01886003 3.37109766,1.0571709 L4.29908203,1.49346549 C4.56067969,1.61494466 4.86439453,1.66476042 5.16962109,1.66584505 C5.47519922,1.66472168 5.77852734,1.61490592 6.04016016,1.49346549 L6.96772266,1.05736458 C7.11070312,0.988645182 7.32645703,0.946034505 7.54101562,0.946925456 C7.77828516,0.94533724 8.01594141,0.999452799 8.15378906,1.07696549 C8.24132812,1.12496061 8.32436719,1.1705153 8.40146484,1.21308724 L7.45548047,1.9457972 C7.15151953,2.18131803 6.98769141,2.55586589 6.98811328,2.93382259 C6.98772656,3.183986 7.05969141,3.4386429 7.20615234,3.65475651 L7.20576562,3.65429167 L7.33071094,3.83929948 C7.56798047,4.18684766 7.93796484,4.36554134 8.30777344,4.36643229 C8.51660156,4.36643229 8.72933203,4.30828809 8.91892969,4.18297396 L9.48466406,3.80861979 C9.60004687,3.73087467 9.77428125,3.68175618 9.95445703,3.68264714 C10.166168,3.68129134 10.3794961,3.7502819 10.5077461,3.85413574 L12.0728672,5.09050391 C12.4211953,5.36545898 12.9885469,5.87547005 13.3029492,6.19640592 L15.1145156,8.04195182 C15.2217773,8.15153874 15.2757773,8.29963021 15.2761992,8.45175033 Z M17.2278984,3.87935352 L14.8145625,6.81972266 L13.7188477,5.70371029 C13.3756523,5.35461263 12.809707,4.84553125 12.4300898,4.54508724 L10.8653906,3.30871908 C10.6001016,3.10163118 10.275293,3.01211003 9.95417578,3.01079297 C9.68090625,3.01168392 9.40559766,3.07730436 9.16794141,3.2332207 L8.60262891,3.60757487 C8.51589844,3.66502181 8.41366406,3.6943457 8.30745703,3.69457812 C8.11761328,3.69527539 7.92762891,3.5976582 7.82170313,3.43875911 L7.69714453,3.25398372 L7.69672266,3.25351888 C7.63045313,3.15504948 7.59958594,3.04461035 7.59912891,2.93281543 C7.5999375,2.76376725 7.67070703,2.59971615 7.80778125,2.49311198 L9.48048047,1.19813477 C9.62511328,1.08277604 9.88242188,1.00185449 10.1268281,1.00386882 C10.2965977,1.00297786 10.4587734,1.04059147 10.569832,1.10102116 L11.9316094,1.8278431 C12.1637813,1.95067806 12.4258008,2.00091992 12.6894023,2.00161719 C13.0280977,1.99979655 13.3704844,1.91868132 13.6525781,1.72778548 L15.0436406,0.77427474 C15.1324102,0.71322526 15.2389687,0.681654622 15.3500625,0.681654622 C15.537832,0.681228516 15.7259883,0.774972005 15.8325469,0.927983073 L17.2587656,2.93874219 C17.3409961,3.05390723 17.3886328,3.21637012 17.3886328,3.38475977 C17.3888789,3.57306022 17.3285156,3.75833919 17.2278984,3.87935352 Z" id="Shape"></path>
        </g>
    </g>
</svg>