<?xml version="1.0" encoding="UTF-8"?>
<svg width="20px" height="20px" viewBox="0 0 20 20" version="1.1" xmlns="http://www.w3.org/2000/svg" xmlns:xlink="http://www.w3.org/1999/xlink">
    <!-- Generator: Sketch 52.2 (67145) - http://www.bohemiancoding.com/sketch -->
    <title>комісія_ico active</title>
    <desc>Created with Sketch.</desc>
    <g id="комісія_ico-active" stroke="none" stroke-width="1" fill="none" fill-rule="evenodd">
        <g id="fees" transform="translate(1.000000, 3.000000)" fill="#FFFFFF" fill-rule="nonzero" stroke="#FFFFFF" stroke-width="0.2">
            <path d="M11.9084318,14.0987557 L0.409090909,14.0987557 C0.183170455,14.0987557 0,13.9155852 0,13.6896648 L0,8.06164773 C0,7.83572727 0.183170455,7.65255682 0.409090909,7.65255682 L0.925056818,7.65255682 C1.15097727,7.65255682 1.33414773,7.83572727 1.33414773,8.06164773 C1.33414773,8.28756818 1.15097727,8.47073864 0.925056818,8.47073864 L0.818181818,8.47073864 L0.818181818,13.2805739 L11.4993409,13.2805739 L11.4993409,13.1815227 C11.4993409,12.9556023 11.6825114,12.7724318 11.9084318,12.7724318 C12.1343523,12.7724318 12.3175227,12.9556023 12.3175227,13.1815227 L12.3175227,13.6896648 C12.3175227,13.9155852 12.1344034,14.0987557 11.9084318,14.0987557 Z M17.580017,13.4188466 L14.0029261,13.4188466 C13.7770057,13.4188466 13.5938352,13.2356761 13.5938352,13.0097557 C13.5938352,12.7838352 13.7770057,12.6006648 14.0029261,12.6006648 L17.1709261,12.6006648 L17.1709261,0.822170455 L7.49178409,0.822170455 L7.49178409,4.33303977 C7.49178409,4.55896023 7.30861364,4.74213068 7.08269318,4.74213068 C6.85677273,4.74213068 6.67360227,4.55896023 6.67360227,4.33303977 L6.67360227,0.413079545 C6.67360227,0.187159091 6.85677273,0.00398863636 7.08269318,0.00398863636 L17.580017,0.00398863636 C17.8059375,0.00398863636 17.989108,0.187159091 17.989108,0.413079545 L17.989108,13.0097045 C17.989108,13.2356761 17.8059886,13.4188466 17.580017,13.4188466 Z M14.0029261,12.0276818 L2.50363636,12.0276818 C2.27771591,12.0276818 2.09454545,11.8445114 2.09454545,11.6185909 L2.09454545,5.990625 C2.09454545,5.76470455 2.27771591,5.58153409 2.50363636,5.58153409 L14.0029261,5.58153409 C14.2288466,5.58153409 14.412017,5.76470455 14.412017,5.990625 L14.412017,11.618642 C14.412017,11.8445625 14.2288977,12.0276818 14.0029261,12.0276818 Z M2.91272727,11.2095 L13.5938352,11.2095 L13.5938352,6.39971591 L2.91272727,6.39971591 L2.91272727,11.2095 Z M15.6984034,11.7171818 C15.5446875,11.7171818 15.3974148,11.6301477 15.327767,11.48175 C15.2317841,11.2772045 15.3197898,11.0335909 15.5243352,10.937608 C15.6368864,10.8847841 15.7580284,10.7145 15.7580284,10.465517 C15.7580284,10.2165341 15.6368864,10.0463011 15.5243352,9.99352841 C15.3197898,9.89754545 15.2317841,9.65393182 15.327767,9.44938636 C15.42375,9.24484091 15.6674659,9.15688636 15.8719091,9.25281818 C16.299767,9.45357955 16.5762102,9.92960795 16.5762102,10.465517 C16.5762102,11.0014773 16.299767,11.4775568 15.8719091,11.6783182 C15.8157102,11.7047045 15.7565966,11.7171818 15.6984034,11.7171818 Z M8.25325568,10.3376761 C7.40792045,10.3376761 6.7201875,9.64994318 6.7201875,8.80460795 C6.7201875,7.95927273 7.40792045,7.27153977 8.25325568,7.27153977 C9.09864205,7.27153977 9.786375,7.95927273 9.786375,8.80460795 C9.786375,9.64994318 9.09864205,10.3376761 8.25325568,10.3376761 Z M8.25325568,8.08972159 C7.85909659,8.08972159 7.53836932,8.41039773 7.53836932,8.80460795 C7.53836932,9.19881818 7.85904545,9.51949432 8.25325568,9.51949432 C8.64746591,9.51949432 8.96819318,9.19881818 8.96819318,8.80460795 C8.96819318,8.41039773 8.64746591,8.08972159 8.25325568,8.08972159 Z M12.1942841,9.21369886 L11.1410795,9.21369886 C10.9151591,9.21369886 10.7319886,9.03052841 10.7319886,8.80460795 C10.7319886,8.5786875 10.9151591,8.39551705 11.1410795,8.39551705 L12.1943352,8.39551705 C12.4202557,8.39551705 12.6034261,8.5786875 12.6034261,8.80460795 C12.6034261,9.03052841 12.4202557,9.21369886 12.1942841,9.21369886 Z M5.36553409,9.21369886 L4.31227841,9.21369886 C4.08635795,9.21369886 3.9031875,9.03052841 3.9031875,8.80460795 C3.9031875,8.5786875 4.08635795,8.39551705 4.31227841,8.39551705 L5.36553409,8.39551705 C5.59145455,8.39551705 5.774625,8.5786875 5.774625,8.80460795 C5.774625,9.03052841 5.59145455,9.21369886 5.36553409,9.21369886 Z M15.2143466,4.29228409 L9.4483125,4.29228409 C9.22239205,4.29228409 9.03922159,4.10911364 9.03922159,3.88319318 C9.03922159,3.65727273 9.22239205,3.47410227 9.4483125,3.47410227 L15.2143466,3.47410227 C15.440267,3.47410227 15.6234375,3.65727273 15.6234375,3.88319318 C15.6234375,4.10911364 15.440267,4.29228409 15.2143466,4.29228409 Z M14.0995739,2.61311932 L10.5376193,2.61311932 C10.3116989,2.61311932 10.1285284,2.42994886 10.1285284,2.20402841 C10.1285284,1.97810795 10.3116989,1.7949375 10.5376193,1.7949375 L14.0995739,1.7949375 C14.3254943,1.7949375 14.5086648,1.97810795 14.5086648,2.20402841 C14.5086648,2.42994886 14.3254943,2.61311932 14.0995739,2.61311932 Z" id="Shape"></path>
        </g>
    </g>
</svg>