<?xml version="1.0" encoding="UTF-8"?>
<svg width="20px" height="20px" viewBox="0 0 20 20" version="1.1" xmlns="http://www.w3.org/2000/svg" xmlns:xlink="http://www.w3.org/1999/xlink">
    <!-- Generator: Sketch 52.2 (67145) - http://www.bohemiancoding.com/sketch -->
    <title>Dashboard icon active</title>
    <desc>Created with Sketch.</desc>
    <g id="Dashboard-icon-active" stroke="none" stroke-width="1" fill="none" fill-rule="evenodd">
        <path d="M18.3359375,3 C17.5028763,3 3.16184999,3 2.6640625,3 C2.29727173,3 2,3.29165136 2,3.65150741 L2,15.7695452 C2,16.1294013 2.29727173,16.4210526 2.6640625,16.4210526 L18.3359375,16.4210526 C18.7027283,16.4210526 19,16.1294013 19,15.7695452 C19,15.5482617 19,4.05310065 19,3.65150741 C19,3.29165136 18.7027283,3 18.3359375,3 Z M8.55204009,4.30301482 L12.4478302,4.30301482 L12.4478302,7.52835825 L8.55204009,7.52835825 L8.55204009,4.30301482 Z M3.328125,4.30301482 L7.22391509,4.30301482 L7.22391509,7.52835825 L3.328125,7.52835825 L3.328125,4.30301482 Z M17.671875,15.1180378 L3.328125,15.1180378 L3.328125,8.83137306 L17.671875,8.83137306 L17.671875,15.1180378 Z M17.671875,7.52835825 L13.7760849,7.52835825 L13.7760849,4.30301482 L17.671875,4.30301482 L17.671875,7.52835825 Z M10.5235776,12.2907554 L12.6947264,10.3774937 C12.9228539,10.176463 13.2928337,10.176463 13.5210754,10.3774937 C13.7492029,10.578625 13.7492029,10.9045583 13.5210754,11.1056897 L10.936695,13.3829991 C10.7085675,13.5840298 10.3384736,13.5839292 10.110346,13.3829991 L8.95007954,12.360548 L7.12699927,13.9670844 C6.8987576,14.1681151 6.52889196,14.1681151 6.3006503,13.9670844 C6.07252278,13.7659531 6.07252278,13.4399192 6.3006503,13.2388884 L8.53696212,11.2682038 C8.76508968,11.067173 9.13529766,11.0672736 9.36331106,11.2682038 L10.5235776,12.2907554 Z" id="Shape" fill="#FFFFFF" fill-rule="nonzero"></path>
    </g>
</svg>