<?xml version="1.0" encoding="UTF-8"?>
<svg width="24px" height="24px" viewBox="0 0 24 24" version="1.1" xmlns="http://www.w3.org/2000/svg" xmlns:xlink="http://www.w3.org/1999/xlink">
    <!-- Generator: Sketch 52.2 (67145) - http://www.bohemiancoding.com/sketch -->
    <title>ico_fee</title>
    <desc>Created with Sketch.</desc>
    <defs>
        <linearGradient x1="78.7053546%" y1="0%" x2="29.1504002%" y2="100%" id="linearGradient-1">
            <stop stop-color="#53BE4F" offset="0%"></stop>
            <stop stop-color="#429321" offset="100%"></stop>
        </linearGradient>
    </defs>
    <g id="ico_fee" stroke="none" stroke-width="1" fill="none" fill-rule="evenodd">
        <g id="pie-chart" transform="translate(1.000000, 2.000000)" fill="url(#linearGradient-1)" fill-rule="nonzero">
            <path d="M10.2425316,2.98392405 L9.40708861,2.98392405 C4.2298481,2.98392405 0.0175443038,7.19594937 0.0175443038,12.3729114 C0.0175443038,17.5501519 4.22956962,21.7621772 9.40708861,21.7624557 C14.5843291,21.7624557 18.7963544,17.5504304 18.7963544,12.3729114 L18.7963544,11.5374684 L10.2425316,11.5374684 L10.2425316,2.98392405 Z M17.0806329,13.2080759 C16.6629114,17.0728354 13.3810127,20.0912911 9.40708861,20.0912911 C5.15106329,20.0910127 1.68843038,16.6286582 1.68843038,12.3726329 C1.68843038,8.39898734 4.70688608,5.11708861 8.57164557,4.69936709 L8.57164557,13.2080759 L17.0806329,13.2080759 Z" id="Shape"></path>
            <path d="M12.3553671,0 L11.5199241,0 L11.5199241,10.2249873 L21.7449114,10.2249873 L21.7449114,9.3895443 C21.7449114,4.21202532 17.5328861,0 12.3553671,0 Z M13.1908101,8.55410127 L13.1908101,1.71572152 C16.7812658,2.10392405 19.6409873,4.96364557 20.0291899,8.55410127 L13.1908101,8.55410127 Z" id="Shape"></path>
        </g>
    </g>
</svg>