<?xml version="1.0" encoding="UTF-8"?>
<svg width="18px" height="19px" viewBox="0 0 18 19" version="1.1" xmlns="http://www.w3.org/2000/svg" xmlns:xlink="http://www.w3.org/1999/xlink">
    <!-- Generator: Sketch 52.2 (67145) - http://www.bohemiancoding.com/sketch -->
    <title>icon_close</title>
    <desc>Created with Sketch.</desc>
    <g id="icon_close" stroke="none" stroke-width="1" fill="none" fill-rule="evenodd">
        <g id="cancel-music" fill="#53BE4F">
            <path d="M11.1383662,9.08374648 L17.555493,2.66661972 C18.1461972,2.07591549 18.1461972,1.11819718 17.555493,0.527577465 C16.9647887,-0.0631267606 16.0071549,-0.0631267606 15.4164507,0.527577465 L8.99923944,6.94478873 L2.58202817,0.527492958 C1.99132394,-0.0632112676 1.03369014,-0.0632112676 0.442985915,0.527492958 C-0.147633803,1.11819718 -0.147633803,2.07591549 0.442985915,2.66653521 L6.86019718,9.08366197 L0.442985915,15.5008732 C-0.147633803,16.0915775 -0.147633803,17.0492958 0.442985915,17.6399155 C1.03369014,18.2306197 1.99132394,18.2306197 2.58202817,17.6399155 L8.99923944,11.2227042 L15.4164507,17.6399155 C16.0070704,18.2306197 16.9647887,18.2306197 17.555493,17.6399155 C18.1461972,17.0492113 18.1461972,16.0915775 17.555493,15.5008732 L11.1383662,9.08374648 Z" id="Path"></path>
        </g>
    </g>
</svg>