<?xml version="1.0" encoding="UTF-8"?>
<svg width="20px" height="20px" viewBox="0 0 20 20" version="1.1" xmlns="http://www.w3.org/2000/svg" xmlns:xlink="http://www.w3.org/1999/xlink">
    <!-- Generator: Sketch 52.2 (67145) - http://www.bohemiancoding.com/sketch -->
    <title>юр ico copy</title>
    <desc>Created with Sketch.</desc>
    <g id="юр-ico-copy" stroke="none" stroke-width="1" fill="none" fill-rule="evenodd">
        <g id="auction" transform="translate(1.000000, 1.000000)" fill="#FFFFFF" stroke="#FFFFFF" stroke-width="0.2">
            <path d="M4.1405625,6.12931641 C4.27798828,6.26677734 4.27798828,6.48931641 4.1405625,6.62642578 C4.00348828,6.76388672 3.78059766,6.76388672 3.64348828,6.62642578 C3.50602734,6.48931641 3.50602734,6.26677734 3.64348828,6.12931641 C3.7805625,5.99220703 4.00345312,5.99220703 4.1405625,6.12931641 Z M8.90152734,15.7400859 C9.46089844,16.0345547 9.84339844,16.621418 9.84339844,17.2962773 L9.84339844,17.6478398 C9.84339844,17.8420078 9.68596875,17.9994023 9.49183594,17.9994023 L0.3515625,17.9994023 C0.157429688,17.9994023 2.922107e-13,17.8420078 2.922107e-13,17.6478398 L2.922107e-13,17.2962773 C2.922107e-13,16.6211016 0.382886719,16.0339922 0.942679688,15.7396641 C0.792246094,15.535582 0.703089844,15.2836523 0.703089844,15.0112266 C0.703089844,14.6824102 0.831058594,14.3734219 1.06344141,14.1411094 C1.29571875,13.9087617 1.60470703,13.780793 1.93352344,13.780793 L7.909875,13.780793 C8.58835547,13.780793 9.14030859,14.3327813 9.14030859,15.0112266 C9.14030859,15.2771836 9.05653125,15.5301328 8.90152734,15.7400859 Z M1.56058594,14.6382188 C1.46102344,14.7377813 1.40621484,14.87025 1.40621484,15.0111914 C1.40621484,15.3019336 1.64274609,15.5385 1.93352344,15.5385 L7.90983984,15.5385 C8.05078125,15.5385 8.18325,15.4836914 8.28277734,15.3841289 C8.38233984,15.2845664 8.43718359,15.1521328 8.43718359,15.0111562 C8.43718359,14.7204141 8.20065234,14.4838477 7.909875,14.4838477 L1.93352344,14.4838477 C1.79258203,14.4838477 1.66011328,14.5386562 1.56058594,14.6382188 Z M0.703089844,17.2962773 L9.14030859,17.2962773 C9.14030859,16.7147578 8.66717578,16.241625 8.08565625,16.241625 L7.909875,16.241625 L1.93352344,16.241625 L1.75774219,16.241625 C1.17622266,16.241625 0.703089844,16.7147578 0.703089844,17.2962773 Z M17.6728008,14.7699844 C18.0823008,15.4029023 18.1096523,16.2363516 17.7421641,16.8928242 C17.4067031,17.4918164 16.8346055,17.8878164 16.1726484,17.9794336 C16.0736133,17.9931445 15.9747188,17.9998945 15.8767383,17.9998945 C15.320918,17.9998945 14.7915,17.7824531 14.3906836,17.3817773 C14.3504297,17.3415234 14.3116523,17.2994062 14.2753711,17.2565859 L12.816,15.5798437 C12.8093555,15.5741484 12.8026758,15.568418 12.7963828,15.562125 C12.7779609,15.5437031 12.7622109,15.5236289 12.7487109,15.5025352 L7.85123438,9.87563672 C7.65418359,10.0636523 7.39698047,10.1671172 7.12364063,10.1671172 C6.84182813,10.1671172 6.57699609,10.0573945 6.37780078,9.85819922 C6.29180859,9.77224219 6.22258594,9.67394531 6.17157422,9.56742187 L5.7470625,9.99196875 C5.87172656,10.4610234 5.75085938,10.9823203 5.3836875,11.3495273 C5.10950391,11.6236758 4.74939844,11.76075 4.38925781,11.76075 C4.02915234,11.76075 3.66904688,11.6236758 3.39486328,11.3495273 L0.411960938,8.36658984 C-0.136335937,7.81825781 -0.136335937,6.92609766 0.411960938,6.37780078 C0.677425781,6.11237109 1.03042969,5.96615625 1.40617969,5.96615625 C1.53084375,5.96615625 1.65287109,5.98260937 1.77015234,6.01379297 L6.01439063,1.76958984 C5.88972656,1.30053516 6.01059375,0.779203125 6.37776563,0.41203125 C6.64340625,0.146355469 6.99648047,3.515625e-05 7.37198438,3.515625e-05 C7.74766406,3.515625e-05 8.10084375,0.146355469 8.36651953,0.41203125 L11.349457,3.39489844 C11.6151328,3.66057422 11.7614531,4.01371875 11.7614531,4.38929297 C11.7614531,4.76486719 11.6151328,5.11801172 11.3494219,5.3836875 C11.0753438,5.65776562 10.7152734,5.79480469 10.3552383,5.79483984 C10.2329648,5.79483984 10.1107969,5.77866797 9.99189844,5.7470625 L9.56650781,6.17245312 C9.67215234,6.22248047 9.77101172,6.29078906 9.85798828,6.37766016 C10.0574297,6.57706641 10.1671523,6.84196875 10.1671523,7.12385156 C10.1671523,7.39747266 10.0635117,7.65478125 9.87528516,7.85155078 L14.4733711,11.8625625 L15.4667813,12.7289883 C15.5011641,12.7456523 15.5335078,12.7679062 15.5620547,12.796418 C15.5790352,12.8133984 15.5938711,12.8316797 15.606668,12.8509453 L17.2493438,14.283668 C17.410957,14.4213398 17.5534102,14.584957 17.6728008,14.7699844 Z M6.87498047,0.909210937 C6.60086719,1.18328906 6.60086719,1.62924609 6.87498047,1.90332422 C6.87505078,1.90339453 6.87508594,1.90342969 6.87515625,1.9035 L9.85819922,4.88654297 C10.1322422,5.16065625 10.5782344,5.16065625 10.8522773,4.88654297 C10.985168,4.7536875 11.0583281,4.57709766 11.0583281,4.38932812 C11.0583281,4.20155859 10.985168,4.02496875 10.8523125,3.89211328 L7.869375,0.909210937 C7.73655469,0.776355469 7.55989453,0.703160156 7.37201953,0.703160156 C7.18439063,0.703160156 7.00783594,0.776355469 6.87498047,0.909210937 Z M4.88650781,10.8523477 C5.16062109,10.5783047 5.16062109,10.1323125 4.88647266,9.85826953 L1.90304297,6.87483984 C1.77046875,6.74230078 1.59401953,6.66928125 1.40617969,6.66928125 C1.21830469,6.66928125 1.04175,6.74233594 0.909140625,6.87498047 C0.634957031,7.14919922 0.634957031,7.59526172 0.909140625,7.86944531 L3.89204297,10.8523477 C4.16619141,11.1265312 4.61235938,11.1264961 4.88650781,10.8523477 Z M6.36665625,8.37805078 C6.37069922,8.37379687 6.37467188,8.36957812 6.37878516,8.36553516 L8.36644922,6.37783594 C8.36982422,6.37449609 8.37295313,6.37154297 8.37615234,6.36851953 L9.36094922,5.3836875 L6.37776563,2.40046875 L2.40043359,6.37787109 L5.38365234,9.36108984 L6.36665625,8.37805078 Z M7.62194531,9.11144531 L9.10982813,7.62352734 C9.11148047,7.62183984 9.11316797,7.62015234 9.11485547,7.6185 L9.36098438,7.37237109 C9.42757031,7.30596094 9.4640625,7.21782422 9.4640625,7.12385156 C9.4640625,7.02980859 9.42746484,6.94142578 9.36101953,6.87498047 C9.22577344,6.739875 9.0045,6.73822266 8.86763672,6.87132422 L6.87072656,8.86823437 C6.80698828,8.93355469 6.77186719,9.02014453 6.77186719,9.11218359 C6.77186719,9.20622656 6.80846484,9.29460937 6.87494531,9.36105469 C6.94132031,9.42746484 7.02963281,9.46402734 7.12360547,9.46402734 C7.21761328,9.46402734 7.30589063,9.42746484 7.37230078,9.36108984 L7.61987109,9.11351953 C7.62057422,9.11281641 7.62124219,9.11214844 7.62194531,9.11144531 Z M8.34996094,9.37775391 L12.1402969,13.7323477 L13.7277422,12.1448672 L9.3774375,8.35027734 L8.34996094,9.37775391 Z M12.6029883,14.2639805 L13.0656797,14.7956484 L14.789918,13.071375 L14.2588125,12.6081211 L12.6029883,14.2639805 Z M17.1287227,16.5493477 C17.3666953,16.124168 17.3480625,15.5623711 17.0822109,15.1515703 C16.9994883,15.0233906 16.902,14.911207 16.7921367,14.8177969 C16.7909766,14.8168125 16.7898516,14.8158633 16.7887617,14.8148789 L15.3209883,13.5345937 L13.5283359,15.3272812 L14.8073203,16.7968828 C14.8084805,16.7981836 14.8096055,16.7995195 14.8107305,16.8008555 C14.8348477,16.8294023 14.8607227,16.8575625 14.8877578,16.8845625 C15.202125,17.1987891 15.6353555,17.3440195 16.0762852,17.2829883 C16.5182344,17.2218164 16.9018242,16.9544531 17.1287227,16.5493477 Z M6.62639063,3.64345312 C6.76367578,3.78077344 6.76367578,4.00334766 6.62639063,4.14059766 L5.13478125,5.63220703 C5.06612109,5.70083203 4.97615625,5.73517969 4.88619141,5.73517969 C4.79622656,5.73517969 4.70626172,5.70086719 4.63760156,5.63220703 C4.50031641,5.49495703 4.50031641,5.27234766 4.63760156,5.1350625 L6.12921094,3.64345312 C6.26653125,3.50616797 6.48907031,3.50616797 6.62639063,3.64345312 Z" id="Combined-Shape"></path>
        </g>
    </g>
</svg>