<?xml version="1.0" encoding="UTF-8"?>
<svg width="20px" height="20px" viewBox="0 0 20 20" version="1.1" xmlns="http://www.w3.org/2000/svg" xmlns:xlink="http://www.w3.org/1999/xlink">
    <!-- Generator: Sketch 52.2 (67145) - http://www.bohemiancoding.com/sketch -->
    <title>новини_ico</title>
    <desc>Created with Sketch.</desc>
    <g id="новини_ico" stroke="none" stroke-width="1" fill="none" fill-rule="evenodd">
        <g id="newspaper" transform="translate(2.000000, 2.000000)" fill="#53BE4F" stroke="#53BE4F" stroke-width="0.3">
            <path d="M15.5586207,1.28968966 C15.3310345,1.28968966 15.1448276,1.47589655 15.1448276,1.70348276 L15.1448276,12.6862414 C15.1448276,13.8483103 14.2,14.7896897 13.0413793,14.7896897 L2.93103448,14.7896897 C1.76896552,14.7896897 0.827586207,13.8448621 0.827586207,12.6862414 L0.827586207,0.837965517 L12.9413793,0.837965517 L12.9413793,11.4931379 C12.9413793,11.7207241 13.1275862,11.906931 13.3551724,11.906931 C13.5827586,11.906931 13.7689655,11.7207241 13.7689655,11.4931379 L13.7689655,0.424172414 C13.7689655,0.196586207 13.5827586,0.0103793103 13.3551724,0.0103793103 L0.413793103,0.0103793103 C0.186206897,0.0103793103 0,0.196586207 0,0.424172414 L0,12.6827931 C0,14.3000345 1.3137931,15.6138276 2.93103448,15.6138276 L13.037931,15.6138276 C14.6551724,15.6138276 15.9689655,14.3000345 15.9689655,12.6827931 L15.9689655,1.70348276 C15.9724138,1.47589655 15.7862069,1.28968966 15.5586207,1.28968966 Z" id="Path"></path>
            <path d="M11.3551724,3.22417241 C11.5827586,3.22417241 11.7689655,3.03796552 11.7689655,2.81037931 C11.7689655,2.5827931 11.5827586,2.39658621 11.3551724,2.39658621 L2.33448276,2.39658621 C2.10689655,2.39658621 1.92068966,2.5827931 1.92068966,2.81037931 C1.92068966,3.03796552 2.10689655,3.22417241 2.33448276,3.22417241 L11.3551724,3.22417241 Z" id="Path"></path>
            <path d="M11.3551724,10.831069 L2.33448276,10.831069 C2.10689655,10.831069 1.92068966,11.0172759 1.92068966,11.2448621 C1.92068966,11.4724483 2.10689655,11.6586552 2.33448276,11.6586552 L11.3517241,11.6586552 C11.5793103,11.6586552 11.7655172,11.4724483 11.7655172,11.2448621 C11.7655172,11.0172759 11.5827586,10.831069 11.3551724,10.831069 Z" id="Path"></path>
            <path d="M11.3551724,12.9517586 L3.76551724,12.9517586 C3.53793103,12.9517586 3.35172414,13.1379655 3.35172414,13.3655517 C3.35172414,13.5931379 3.53793103,13.7793448 3.76551724,13.7793448 L11.3551724,13.7793448 C11.5827586,13.7793448 11.7689655,13.5931379 11.7689655,13.3655517 C11.7689655,13.1379655 11.5827586,12.9517586 11.3551724,12.9517586 Z" id="Path"></path>
            <path d="M1.78275862,4.669 L1.78275862,9.14486207 C1.78275862,9.37244828 1.96896552,9.55865517 2.19655172,9.55865517 L6.68965517,9.55865517 C6.91724138,9.55865517 7.10344828,9.37244828 7.10344828,9.14486207 L7.10344828,4.669 C7.10344828,4.44141379 6.91724138,4.2552069 6.68965517,4.2552069 L2.19655172,4.2552069 C1.96896552,4.2552069 1.78275862,4.44141379 1.78275862,4.669 Z M2.61034483,5.0827931 L6.27586207,5.0827931 L6.27586207,8.73106897 L2.61034483,8.73106897 L2.61034483,5.0827931 Z" id="Shape" fill-rule="nonzero"></path>
            <path d="M11.5758621,4.669 L8.6,4.669 C8.37241379,4.669 8.1862069,4.8552069 8.1862069,5.0827931 C8.1862069,5.31037931 8.37241379,5.49658621 8.6,5.49658621 L11.5758621,5.49658621 C11.8034483,5.49658621 11.9896552,5.31037931 11.9896552,5.0827931 C11.9896552,4.8552069 11.8068966,4.669 11.5758621,4.669 Z" id="Path"></path>
            <path d="M11.5758621,6.53796552 L8.6,6.53796552 C8.37241379,6.53796552 8.1862069,6.72417241 8.1862069,6.95175862 C8.1862069,7.17934483 8.37241379,7.36555172 8.6,7.36555172 L11.5758621,7.36555172 C11.8034483,7.36555172 11.9896552,7.17934483 11.9896552,6.95175862 C11.9896552,6.72417241 11.8068966,6.53796552 11.5758621,6.53796552 Z" id="Path"></path>
            <path d="M11.9896552,8.93796552 C11.9896552,8.71037931 11.8034483,8.52417241 11.5758621,8.52417241 L8.6,8.52417241 C8.37241379,8.52417241 8.1862069,8.71037931 8.1862069,8.93796552 C8.1862069,9.16555172 8.37241379,9.35175862 8.6,9.35175862 L11.5758621,9.35175862 C11.8068966,9.35175862 11.9896552,9.16555172 11.9896552,8.93796552 Z" id="Path"></path>
        </g>
    </g>
</svg>