<?xml version="1.0" encoding="UTF-8"?>
<svg width="24px" height="24px" viewBox="0 0 24 24" version="1.1" xmlns="http://www.w3.org/2000/svg" xmlns:xlink="http://www.w3.org/1999/xlink">
    <!-- Generator: Sketch 52.2 (67145) - http://www.bohemiancoding.com/sketch -->
    <title>notification-icon</title>
    <desc>Created with Sketch.</desc>
    <g id="notification-icon" stroke="none" stroke-width="1" fill="none" fill-rule="evenodd">
        <g>
            <circle id="border" fill="#53BE4F" cx="12" cy="12" r="12"></circle>
            <g id="icon_notif" transform="translate(6.000000, 5.000000)" fill="#FFFFFF" fill-rule="nonzero">
                <path d="M5.6,14 C6.37,14 7,13.37 7,12.6 L4.2,12.6 C4.2,13.37 4.823,14 5.6,14 Z M9.8,9.8 L9.8,6.3 C9.8,4.151 8.652,2.352 6.65,1.876 L6.65,1.4 C6.65,0.819 6.181,0.35 5.6,0.35 C5.019,0.35 4.55,0.819 4.55,1.4 L4.55,1.876 C2.541,2.352 1.4,4.144 1.4,6.3 L1.4,9.8 L0,11.2 L0,11.9 L11.2,11.9 L11.2,11.2 L9.8,9.8 Z" id="Shape"></path>
            </g>
        </g>
    </g>
</svg>