<?xml version="1.0" encoding="UTF-8"?>
<svg width="24px" height="24px" viewBox="0 0 24 24" version="1.1" xmlns="http://www.w3.org/2000/svg" xmlns:xlink="http://www.w3.org/1999/xlink">
    <!-- Generator: Sketch 52.2 (67145) - http://www.bohemiancoding.com/sketch -->
    <title>прострочені ico</title>
    <desc>Created with Sketch.</desc>
    <defs>
        <linearGradient x1="50%" y1="0%" x2="50%" y2="100%" id="linearGradient-1">
            <stop stop-color="#FAD961" offset="0%"></stop>
            <stop stop-color="#F76B1C" offset="100%"></stop>
        </linearGradient>
    </defs>
    <g id="прострочені-ico" stroke="none" stroke-width="1" fill="none" fill-rule="evenodd">
        <g id="001-time" transform="translate(1.000000, 1.000000)" fill="url(#linearGradient-1)">
            <path d="M10.8690476,0 C4.87588095,0 0,4.87588095 0,10.8690476 C0,16.8624762 4.87561905,21.7383571 10.8690476,21.7383571 C16.8624762,21.7383571 21.7383571,16.8624762 21.7383571,10.8690476 C21.7383571,4.87588095 16.8622143,0 10.8690476,0 Z M10.8690476,20.1669286 C5.7422619,20.1669286 1.57142857,15.9958333 1.57142857,10.8690476 C1.57142857,5.7422619 5.7422619,1.57142857 10.8690476,1.57142857 C15.9958333,1.57142857 20.1669286,5.7422619 20.1669286,10.8690476 C20.1669286,15.9958333 15.9955714,20.1669286 10.8690476,20.1669286 Z" id="Shape" fill-rule="nonzero"></path>
            <path d="M13.9935714,13.5666667 L11.6547619,12.2443095 L11.6547619,5.76190476 C11.6547619,5.32792857 11.3030238,4.97619048 10.8690476,4.97619048 C10.4350714,4.97619048 10.0833333,5.32792857 10.0833333,5.76190476 L10.0833333,12.702381 C10.0833333,12.7115476 10.0856905,12.7201905 10.0859524,12.7293571 C10.087,12.7592143 10.0904048,12.7888095 10.0948571,12.8181429 C10.0982619,12.8409286 10.1014048,12.8634524 10.1066429,12.8854524 C10.1129286,12.9119048 10.1215714,12.9370476 10.1307381,12.9627143 C10.1385952,12.9855 10.1464524,13.0080238 10.1564048,13.0295 C10.1674048,13.0538571 10.1810238,13.0766429 10.1946429,13.0996905 C10.2066905,13.120119 10.2182143,13.1402857 10.2320952,13.1596667 C10.2478095,13.1814048 10.2653571,13.2015714 10.2831667,13.2217381 C10.2994048,13.2395476 10.315119,13.257619 10.3326667,13.274119 C10.351,13.2911429 10.3709048,13.3068571 10.3913333,13.3225714 C10.4130714,13.3390714 10.4348095,13.3553095 10.4578571,13.3697143 C10.4665,13.3752143 10.4733095,13.3817619 10.4822143,13.3867381 L13.2199048,14.9348571 C13.3422143,15.004 13.475,15.037 13.6059524,15.037 C13.8801667,15.037 14.1462619,14.8932143 14.2905714,14.6378571 C14.5040238,14.2594048 14.3712381,13.780119 13.9935714,13.5666667 Z" id="Path"></path>
        </g>
    </g>
</svg>