<?xml version="1.0" encoding="UTF-8"?>
<svg width="24px" height="24px" viewBox="0 0 24 24" version="1.1" xmlns="http://www.w3.org/2000/svg" xmlns:xlink="http://www.w3.org/1999/xlink">
    <!-- Generator: Sketch 52.2 (67145) - http://www.bohemiancoding.com/sketch -->
    <title>оплачені ico</title>
    <desc>Created with Sketch.</desc>
    <defs>
        <linearGradient x1="72.1919454%" y1="5.47355835%" x2="33.9940301%" y2="100%" id="linearGradient-1">
            <stop stop-color="#8BE087" offset="0%"></stop>
            <stop stop-color="#53BE4F" offset="100%"></stop>
        </linearGradient>
    </defs>
    <g id="оплачені-ico" stroke="none" stroke-width="1" fill="none" fill-rule="evenodd">
        <g id="002-shield" transform="translate(1.000000, 1.000000)" fill="url(#linearGradient-1)" fill-rule="nonzero">
            <path d="M11.0422769,5.32907052e-15 L22.0425915,4.68138657 L22.0149059,5.33388628 C21.9862765,6.01784693 21.1931464,22.0792815 11.0425915,22.0792815 C0.891722084,22.0792815 0.0989066162,6.01753232 0.0699625595,5.33388628 L0.0425915493,4.68138657 L11.0422769,5.32907052e-15 Z M11.0425915,20.1913111 C18.3918651,20.1913111 19.8368657,8.76501544 20.0832048,5.89892461 L11.0425915,2.05125272 L2.00229296,5.89861 C2.25083431,8.76470084 3.70432934,20.1913111 11.0425915,20.1913111 Z M7.60139489,10.3088033 L9.99211106,12.0454467 L15.7780909,7.2838348 L17.0487979,8.95409564 L9.92981841,16.1888514 L9.92447005,16.1809862 L9.91660482,16.1888514 L5.94686452,11.764186 L7.60139489,10.3088033 Z" id="Combined-Shape"></path>
        </g>
    </g>
</svg>