<?xml version="1.0" encoding="UTF-8"?>
<svg width="24px" height="24px" viewBox="0 0 24 24" version="1.1" xmlns="http://www.w3.org/2000/svg" xmlns:xlink="http://www.w3.org/1999/xlink">
    <!-- Generator: Sketch 52.2 (67145) - http://www.bohemiancoding.com/sketch -->
    <title>ico_ugodi</title>
    <desc>Created with Sketch.</desc>
    <g id="ico_ugodi" stroke="none" stroke-width="1" fill="none" fill-rule="evenodd">
        <g id="handshake" transform="translate(1.000000, 4.000000)" fill="#53BE4F" fill-rule="nonzero" stroke="#4EC048" stroke-width="0.3">
            <path d="M22,4.13654984 C21.9994844,3.76853563 21.9012578,3.39531344 21.6840508,3.08766435 L19.9408945,0.630069878 C19.6489219,0.221575521 19.204668,0.0135880715 18.7607148,0.0127832031 C18.4965,0.0127832031 18.2274727,0.0873992332 17.9897695,0.250740162 L16.2900977,1.41590545 C16.1113477,1.54151226 15.8048945,1.62772786 15.5088828,1.62550264 C15.2789141,1.62659158 15.0566797,1.57588487 14.9099414,1.49601353 L13.2455039,0.6076756 C12.9770352,0.465261249 12.6777578,0.406884621 12.3768047,0.406316479 C11.944582,0.408541703 11.5068594,0.525579029 11.1551172,0.79416833 L10.9608984,0.944299949 C10.8056523,0.85893656 10.5684219,0.728879304 10.2996953,0.581541052 C9.97742969,0.407452763 9.59848828,0.337239837 9.21572266,0.335866826 C8.86995313,0.336955765 8.52426953,0.395663809 8.22073828,0.536941876 L7.08705078,1.0699541 C6.90254297,1.15811086 6.60906641,1.21568262 6.31756641,1.21426226 C6.02606641,1.21563527 5.73310547,1.15806351 5.54859766,1.0699541 L4.41387891,0.536657805 C4.20689844,0.439410771 3.98565234,0.397841688 3.76638281,0.397557617 C3.51389844,0.397841688 3.26291797,0.452667426 3.02964062,0.556779514 C2.79666406,0.661459744 2.58040234,0.815994466 2.40818359,1.0280536 L0.342246094,3.57740307 C0.113265625,3.85915433 -0.00047265625,4.21395924 3.81638529e-16,4.56322475 C-0.00047265625,4.97972045 0.161261719,5.39754181 0.473214844,5.69037185 L2.40036328,7.50198846 L1.48616016,8.5528151 C1.23414844,8.84261505 1.10867969,9.21834654 1.10867969,9.58986429 C1.10820703,9.98514934 1.25069141,10.3842694 1.53291016,10.678141 L1.71836328,10.8723036 C1.89311719,11.0549614 2.10310547,11.1711465 2.32284766,11.2331214 C2.21263281,11.456496 2.15239063,11.7014127 2.15286328,11.9468029 C2.15239063,12.342372 2.294875,12.7412079 2.57657813,13.035411 L2.76211719,13.2301418 C3.02689063,13.5066851 3.370125,13.6444123 3.70828906,13.6441755 C3.89004688,13.6444596 4.07201953,13.6042162 4.24303516,13.5254338 C4.3030625,13.793739 4.42702734,14.0487876 4.62201953,14.2526087 L4.80803125,14.4476235 C5.07280469,14.7241668 5.41548047,14.861894 5.75420312,14.8616573 C6.01897656,14.8619413 6.28495312,14.7759625 6.51393359,14.6090706 C6.58092187,14.8465068 6.69569141,15.0715385 6.87040234,15.254433 L7.05641406,15.4494479 C7.32062891,15.7259912 7.66386328,15.8637184 8.00211328,15.8634816 C8.36232031,15.8637657 8.72609375,15.707858 8.99477734,15.3987885 L9.80276172,14.4691182 L10.9004844,15.5885481 C11.1632383,15.85709 11.5005,15.9906982 11.8334219,15.9898933 C12.1991719,15.9907455 12.5681445,15.8292984 12.8373867,15.5117068 L13.0126133,15.3048556 C13.1638633,15.1258435 13.2626055,14.9139737 13.3198828,14.6928243 L13.7451016,15.1252753 C14.0083281,15.3927283 14.3451172,15.5257683 14.6775664,15.5254843 C15.0437891,15.5257683 15.413793,15.3643212 15.683293,15.0464929 L15.8575313,14.8398785 C16.0587539,14.6030105 16.1720195,14.3096123 16.2069961,14.0099645 C16.3192305,14.0416385 16.4329688,14.0631332 16.5476953,14.0631332 C16.913918,14.0631332 17.2828906,13.9019701 17.5526484,13.5844259 L17.7274023,13.3778115 C17.9716367,13.0893845 18.0931523,12.7194765 18.0926367,12.3547764 C18.0926367,12.2415741 18.0778984,12.1289399 18.055125,12.0176313 C18.3588711,11.9732688 18.6533789,11.8239894 18.877332,11.5589984 L19.0525586,11.3521472 C19.296793,11.0637203 19.417793,10.6938122 19.417793,10.3288281 C19.4182656,9.92724617 19.2713125,9.52201863 18.9813164,9.22677398 L18.6535937,8.89322707 L21.6114766,5.28978414 C21.8770234,4.96537486 21.9995273,4.54779022 22,4.13654984 Z M2.66466406,10.4663659 C2.50795703,10.4658451 2.3546875,10.404107 2.23493359,10.2790683 L2.04917969,10.0849057 C1.92066016,9.95101345 1.85719531,9.77285348 1.85667969,9.58991164 C1.85719531,9.41833265 1.91292578,9.25082534 2.02769531,9.11887428 L3.90010156,6.96594614 C4.02208984,6.82570967 4.18485547,6.75549674 4.35183203,6.75526002 C4.50806641,6.75554409 4.66082031,6.81751895 4.7815625,6.94284169 L4.96654297,7.13728841 C4.96654297,7.13728841 5.15805469,7.4493406 5.15852734,7.63251917 C5.15805469,7.7696782 5.12054297,7.90328635 5.04779688,8.01899801 C5.04156641,8.02586306 3.02689063,10.3393861 3.02689063,10.3393861 C2.91989844,10.4228083 2.79339844,10.4657504 2.66466406,10.4663659 Z M4.1600625,12.613802 C4.03833203,12.7534703 3.87582422,12.8233992 3.70884766,12.8239673 C3.55214063,12.8236833 3.39934375,12.7617084 3.27911719,12.6366697 L3.09310547,12.4418916 L3.09263281,12.4416075 C2.96514453,12.3082835 2.90112109,12.1295553 2.90112109,11.9466135 C2.90112109,11.7750345 2.95736719,11.6075272 3.07157813,11.4755761 C3.07157813,11.4755761 5.56746094,8.61284881 5.58847266,8.58524656 C5.70775391,8.45883489 5.86145313,8.39354586 6.02017969,8.39326179 C6.17688672,8.39354586 6.32968359,8.45523665 6.44991016,8.58055939 L6.63592188,8.77557425 C6.76388281,8.90889833 6.82743359,9.08738972 6.82790625,9.27056829 C6.82739063,9.44214728 6.7711875,9.60989131 6.65689063,9.74184238 L4.1600625,12.613802 Z M6.20567578,13.8309523 C6.08420313,13.9709521 5.92173828,14.0409756 5.75471875,14.0414964 C5.59801172,14.0412123 5.44521484,13.9792375 5.32498828,13.8539147 L5.13846094,13.6591366 C5.0105,13.5255285 4.94647656,13.3470844 4.94647656,13.1641426 C4.94647656,13.0110282 4.99374219,12.8625063 5.08419141,12.7388407 L6.82236328,10.7398791 C6.939625,10.6233626 7.08657813,10.5619559 7.23885938,10.5619559 C7.39556641,10.5622399 7.54836328,10.6239307 7.66858984,10.7492535 L7.85511719,10.9442683 C7.98260547,11.0775924 8.04662891,11.2560838 8.04710156,11.4389783 C8.04658594,11.6108887 7.98986719,11.7786327 7.87608594,11.9102524 L6.20567578,13.8309523 Z M9.50833984,13.6199821 L8.45362891,14.8328714 C8.33211328,14.9727764 8.16939063,15.0428 8.00241406,15.0433208 C7.84570703,15.0430367 7.69291016,14.9810618 7.57268359,14.8557391 L7.38667188,14.660961 C7.25918359,14.5276369 7.19516016,14.3489088 7.1946875,14.1659669 C7.19516016,13.9940565 7.25140625,13.8263125 7.36570313,13.6949296 L8.41994141,12.4820877 C8.54192969,12.3421826 8.70469531,12.2719223 8.87167188,12.2716383 C9.02790625,12.2719223 9.18117578,12.3336131 9.30140234,12.4592199 L9.48792969,12.6539981 C9.61541797,12.7873222 9.67892578,12.9658135 9.67944141,13.148708 C9.67883984,13.3205711 9.62259375,13.4883151 9.50833984,13.6199821 Z M18.6709102,10.3299171 C18.6706953,10.4983713 18.6159102,10.6633693 18.5049219,10.7944681 L18.330168,11.0010826 C18.2081797,11.1448699 18.0426641,11.2175922 17.8731953,11.2178762 C17.7194531,11.2175922 17.5689336,11.1580792 17.4494805,11.0364021 L14.5046172,8.03561617 L13.9953945,8.63637938 L17.1474961,11.8539116 C17.2787656,11.9878038 17.3447227,12.1696094 17.3457109,12.3552499 C17.3447227,12.5243669 17.2904531,12.6890809 17.1797227,12.8202271 L17.0054844,13.0268415 C16.8834961,13.1706289 16.7179805,13.243067 16.5485117,13.2436352 C16.3947695,13.2431144 16.2437773,13.1833174 16.1252695,13.0623978 L13.1796328,10.0616592 L12.6709258,10.6624224 L15.2850586,13.3260632 C15.411043,13.4591032 15.475582,13.6362215 15.475582,13.8179797 C15.475582,13.986576 15.4213125,14.1515267 15.310582,14.2823888 L15.1358281,14.4890032 C15.0143125,14.6327906 14.8483242,14.7055128 14.6783828,14.7060336 C14.524125,14.7055128 14.3736484,14.6457158 14.254668,14.5247962 L11.6457773,11.8708138 L11.6453047,11.8708138 L11.644832,11.870293 L11.1371133,12.4721452 L11.1376289,12.472666 L11.1473828,12.4828452 L12.4540625,13.8116355 C12.5698203,13.9427343 12.6298047,14.1107624 12.6302773,14.2845667 C12.6298047,14.4523107 12.5760078,14.6164565 12.4652773,14.747366 L12.2905234,14.9542171 C12.1685352,15.0980045 12.0035352,15.1701586 11.8345391,15.1707267 C11.6807969,15.1702059 11.5302773,15.110693 11.4112969,14.9892526 L10.2736133,13.8284904 C10.3726133,13.6144901 10.4278711,13.3822619 10.4278711,13.1492288 C10.4283438,12.7539438 10.2858594,12.3553919 10.0041563,12.0609521 L9.81762891,11.8659373 C9.55341406,11.5896307 9.21065234,11.4516668 8.87244531,11.4521876 C8.84619141,11.4521876 8.81972266,11.4588159 8.79398438,11.460473 C8.79398438,11.453608 8.79544531,11.4464115 8.79544531,11.4395464 C8.79591797,11.0442614 8.37173047,10.3507016 8.37173047,10.3507016 L8.18571875,10.1562549 C7.98797656,9.94964044 7.74670703,9.82076682 7.49576953,9.76897117 C7.54750391,9.6075714 7.57676563,9.43954329 7.57676563,9.27123112 C7.57676563,8.87594607 7.43475391,8.47706279 7.15305078,8.18295443 L6.96703906,7.98793956 C6.70226563,7.71139627 6.35958984,7.57338502 6.02133984,7.57366909 C5.98185156,7.57366909 5.94287891,7.5824753 5.90360547,7.5863576 C5.89286328,7.20679116 5.75411719,6.82750879 5.48414453,6.54490531 L5.48414453,6.54462124 L5.29864844,6.35045859 C5.033875,6.07363122 4.69119922,5.93561997 4.35294922,5.93590404 C3.99218359,5.93561997 3.62896875,6.09152771 3.36028516,6.40059715 L2.91830859,6.90880049 L0.960394531,5.06877677 C0.819671875,4.93602083 0.749417969,4.7525582 0.748902344,4.56417166 C0.749375,4.40632277 0.798144531,4.25178805 0.902128906,4.12348257 L2.96802344,1.57418045 C3.05000781,1.47281438 3.17126562,1.38110673 3.31327734,1.31742745 C3.45528906,1.2537955 3.61650781,1.21885475 3.76724219,1.21909147 C3.89851172,1.21909147 4.02170313,1.24527337 4.12023047,1.29209776 L5.25443359,1.82534672 C5.57416406,1.97382125 5.94537109,2.03470718 6.31842578,2.03603284 C6.69191016,2.03465983 7.06264453,1.97377391 7.38241797,1.82534672 L8.51610547,1.29233449 C8.69085938,1.20834411 8.95455859,1.1562644 9.21679688,1.15735333 C9.50679297,1.15541218 9.79726172,1.22155342 9.96574219,1.31629116 C10.0727344,1.37495186 10.1742266,1.43062981 10.268457,1.48266218 L9.11225391,2.37819658 C8.74074609,2.66605537 8.54051172,3.12383608 8.54102734,3.58578317 C8.54055469,3.89153845 8.62851172,4.20278577 8.80751953,4.46692462 L8.80704687,4.46635648 L8.95975781,4.69247714 C9.24975391,5.11725825 9.70195703,5.33566164 10.1539453,5.33675058 C10.4091797,5.33675058 10.6691836,5.26568544 10.9009141,5.11252373 L11.5923672,4.65497975 C11.7333906,4.55995794 11.9463438,4.49992423 12.1665586,4.50101317 C12.4253164,4.49935608 12.6860508,4.58367788 12.8428008,4.71061035 L14.7557266,6.221727 C15.1814609,6.5577832 15.8748906,7.18113006 16.2591602,7.57338502 L18.4732969,9.82905223 C18.6043945,9.96299179 18.6703945,10.1439925 18.6709102,10.3299171 Z M21.0563203,4.74143207 L18.1066875,8.33521658 L16.7674805,6.97120146 C16.3480195,6.54452655 15.6563086,5.92231597 15.192332,5.55510663 L13.2799219,4.04398998 C12.9556797,3.79088256 12.5586914,3.68146781 12.1662148,3.67985807 C11.8322188,3.68094701 11.4957305,3.76114978 11.2052617,3.95171419 L10.5143242,4.40925817 C10.4083203,4.4794711 10.2833672,4.51531141 10.1535586,4.51559549 C9.92152734,4.5164477 9.68932422,4.3971378 9.55985938,4.20292781 L9.40762109,3.97709122 L9.40710547,3.97652308 C9.32610938,3.85617159 9.28838281,3.72119043 9.28782422,3.58455219 C9.2888125,3.37793775 9.37530859,3.17743084 9.54284375,3.04713686 L11.5872539,1.46438694 C11.7640273,1.32339294 12.0785156,1.22448882 12.3772344,1.22695077 C12.5847305,1.22586183 12.7829453,1.27183402 12.9186836,1.34569253 L14.5830781,2.23403045 C14.8668438,2.38416207 15.1870898,2.44556879 15.5092695,2.44642101 C15.9232305,2.44419578 16.3417031,2.34505494 16.6864844,2.11173781 L18.3866719,0.946335793 C18.495168,0.871719763 18.6254063,0.833133427 18.7611875,0.833133427 C18.9906836,0.83261263 19.2206523,0.947188006 19.3508906,1.13420153 L21.0940469,3.59179601 C21.1945508,3.73255328 21.2527734,3.93111903 21.2527734,4.1369286 C21.2530742,4.3670736 21.1792969,4.59352568 21.0563203,4.74143207 Z" id="Shape"></path>
        </g>
    </g>
</svg>