<?xml version="1.0" encoding="UTF-8"?>
<svg width="24px" height="24px" viewBox="0 0 24 24" version="1.1" xmlns="http://www.w3.org/2000/svg" xmlns:xlink="http://www.w3.org/1999/xlink">
    <!-- Generator: Sketch 52.2 (67145) - http://www.bohemiancoding.com/sketch -->
    <title>ico_users</title>
    <desc>Created with Sketch.</desc>
    <defs>
        <linearGradient x1="78.7053546%" y1="0%" x2="29.1504002%" y2="100%" id="linearGradient-1">
            <stop stop-color="#53BE4F" offset="0%"></stop>
            <stop stop-color="#429321" offset="100%"></stop>
        </linearGradient>
    </defs>
    <g id="ico_users" stroke="none" stroke-width="1" fill="none" fill-rule="evenodd">
        <g id="group-(1)" transform="translate(1.000000, 2.000000)" fill="url(#linearGradient-1)" fill-rule="nonzero">
            <path d="M17.9946392,8.85692784 C18.789134,7.90503093 19.2579381,6.60748454 19.2579381,5.22375258 C19.2579381,2.36443299 17.2709072,0.0381030928 14.8286804,0.0381030928 C13.1344536,0.0381030928 11.6606804,1.15828866 10.9163093,2.79876289 C10.1719381,1.15828866 8.69816495,0.0381030928 7.00393814,0.0381030928 C4.56148454,0.0381030928 2.57468041,2.36443299 2.57468041,5.22375258 C2.57468041,6.61065979 3.04303093,7.90616495 3.83775258,8.85670103 C2.44857732,9.50989691 0,10.734866 0,14.4229278 L0,15.7837526 L1.36082474,15.7837526 L4.17795876,15.7837526 C4.01080412,16.3387423 3.91191753,16.9756082 3.91191753,17.7118144 L3.91191753,19.0726392 L5.27274227,19.0726392 L10.8757113,19.0726392 L10.9557732,19.0726392 L16.5587423,19.0726392 L17.919567,19.0726392 L17.919567,17.7118144 C17.919567,16.9756082 17.8206804,16.3387423 17.6535258,15.7837526 L20.471567,15.7837526 L21.8323918,15.7837526 L21.8323918,14.4229278 C21.8323918,10.7350928 19.3838144,9.51012371 17.9946392,8.85692784 Z M4.81301031,14.4229278 L1.36082474,14.4229278 C1.36082474,10.3252577 4.95952577,10.3263918 5.75810309,9.25496907 L5.84950515,8.76643299 C4.72750515,8.19760825 3.93550515,6.82703093 3.93550515,5.22352577 C3.93550515,3.11129897 5.30948454,1.39870103 7.00393814,1.39870103 C8.20418557,1.39870103 9.2402268,2.26010309 9.74395876,3.51228866 C7.86874227,4.11558763 6.48659794,6.12824742 6.48659794,8.51241237 C6.48659794,9.89931959 6.95494845,11.1948247 7.7496701,12.145134 C6.89915464,12.5452165 5.65263918,13.1605361 4.81301031,14.4229278 Z M10.9557732,17.7118144 L10.8757113,17.7118144 L5.27274227,17.7118144 C5.27274227,13.6143711 8.8714433,13.6152784 9.67002062,12.5438557 L9.76142268,12.0553196 C8.63942268,11.4864948 7.84742268,10.1159175 7.84742268,8.51241237 C7.84742268,6.40018557 9.22140206,4.68758763 10.9158557,4.68758763 C12.6103093,4.68758763 13.9842887,6.40018557 13.9842887,8.51241237 C13.9842887,10.1018557 13.2063505,11.464268 12.0993196,12.0417113 L12.2034227,12.5971546 C13.079567,13.6166392 16.5585155,13.6830928 16.5585155,17.7118144 C16.5585155,17.7118144 10.9557732,17.7118144 10.9557732,17.7118144 Z M17.0184742,14.4229278 C16.1788454,13.1607629 14.9321031,12.5454433 14.0818144,12.1455876 C14.8763093,11.1936907 15.3451134,9.89614433 15.3451134,8.51241237 C15.3451134,6.12824742 13.9631959,4.11604124 12.088433,3.51251546 C12.5921649,2.26010309 13.628433,1.39870103 14.8286804,1.39870103 C16.5233608,1.39870103 17.8971134,3.11129897 17.8971134,5.22352577 C17.8971134,6.81319588 17.1191753,8.17538144 16.0121443,8.75305155 L16.1162474,9.30849485 C16.9923918,10.3279794 20.4713402,10.394433 20.4713402,14.4229278 L17.0184742,14.4229278 Z" id="Shape"></path>
        </g>
    </g>
</svg>