<?xml version="1.0" encoding="UTF-8"?>
<svg width="20px" height="20px" viewBox="0 0 20 20" version="1.1" xmlns="http://www.w3.org/2000/svg" xmlns:xlink="http://www.w3.org/1999/xlink">
    <!-- Generator: Sketch 52.2 (67145) - http://www.bohemiancoding.com/sketch -->
    <title>Users_icon</title>
    <desc>Created with Sketch.</desc>
    <g id="Users_icon" stroke="none" stroke-width="1" fill="none" fill-rule="evenodd">
        <rect id="Rectangle" x="0" y="0" width="20" height="20"></rect>
        <g id="user" transform="translate(3.000000, 2.000000)" fill="#53BE4F" stroke="#53BE4F" stroke-width="0.6">
            <path d="M12.7959742,2.1920339 C9.87331319,-0.730677966 5.11770302,-0.730677966 2.195042,2.1920339 C1.16960132,3.21747458 0.468160644,4.50574576 0.166482678,5.91762712 C-0.127212238,7.29238983 -0.0310088479,8.71672881 0.444669118,10.0365763 C0.501821661,10.1950678 0.676686067,10.2772373 0.835126745,10.2201356 C0.993669118,10.1629831 1.07583861,9.98816949 1.01868607,9.82967797 C0.581652169,8.61701695 0.493279288,7.30835593 0.763177593,6.04505085 C1.04014369,4.74864407 1.68448268,3.56542373 2.62648268,2.62342373 C5.31127929,-0.0613728814 9.67973691,-0.0613728814 12.3645335,2.62342373 C13.6430928,3.9020339 14.3588217,5.60161017 14.3798217,7.40918644 C14.4008217,9.21345763 13.7284149,10.9266102 12.4865674,12.2329831 C12.4718725,12.2484407 12.4573301,12.264 12.4427878,12.2795593 C12.4170589,12.3070678 12.391381,12.3346271 12.3645335,12.3614746 C9.67973691,15.0462712 5.31127929,15.0462712 2.62648268,12.3614746 C2.61219454,12.3471864 2.59826234,12.3326441 2.58448268,12.3181017 C2.58377081,12.2899322 2.58316064,12.2621695 2.58316064,12.2348136 C2.58316064,12.1733898 2.58433014,12.1122203 2.58656742,12.0512542 C2.58733014,12.0308644 2.58885556,12.010678 2.58987251,11.990339 C2.59185556,11.9498136 2.59373691,11.9092881 2.59668607,11.8689661 C2.59846573,11.8449153 2.60105895,11.8211186 2.60319454,11.7971695 C2.60639793,11.7608136 2.60939793,11.7244576 2.61336403,11.6883051 C2.61616064,11.6627797 2.61982166,11.6374576 2.62302505,11.6120339 C2.62734708,11.5777119 2.63146573,11.5432881 2.63655047,11.5091186 C2.64041488,11.4830847 2.64499115,11.4573051 2.64926234,11.4314237 C2.65470302,11.3981186 2.65999115,11.3648136 2.66614369,11.3317119 C2.6709742,11.3055254 2.67651658,11.2795932 2.68180471,11.2535593 C2.68836403,11.2210678 2.69482166,11.1885254 2.702042,11.1562373 C2.70788946,11.1300508 2.71439793,11.1040169 2.72065217,11.0779831 C2.72827929,11.0462034 2.73585556,11.0144237 2.74409285,10.9828983 C2.75095725,10.9567627 2.75838098,10.9308305 2.76560132,10.9048475 C2.77429624,10.8737288 2.7829403,10.8425593 2.79224539,10.8116441 C2.80002505,10.7857119 2.80836403,10.7599831 2.81660132,10.7342542 C2.82636403,10.7036949 2.83612675,10.6730847 2.84644878,10.6427797 C2.85519454,10.6172034 2.86434708,10.5917797 2.87349963,10.5663559 C2.88433014,10.5362542 2.89521149,10.5061525 2.90660132,10.4762542 C2.91626234,10.4509831 2.92627929,10.4259661 2.93634708,10.4008983 C2.94819454,10.3713559 2.96014369,10.3418136 2.97255047,10.3125254 C2.98312675,10.2876102 2.9940081,10.2628983 3.00499115,10.2381864 C3.01785556,10.2091525 3.03087251,10.1802203 3.04429624,10.1514915 C3.05573691,10.1270339 3.06743183,10.1027288 3.07927929,10.0784746 C3.09321149,10.0499492 3.10729624,10.0214746 3.12173691,9.99325424 C3.13399115,9.96935593 3.14644878,9.94555932 3.1591098,9.92186441 C3.17405895,9.89379661 3.18926234,9.86583051 3.20477081,9.83801695 C3.21783861,9.81462712 3.23105895,9.79133898 3.24448268,9.76820339 C3.26044878,9.74069492 3.27666912,9.71333898 3.29319454,9.68608475 C3.3070759,9.66320339 3.3211098,9.64042373 3.33534708,9.61774576 C3.35233014,9.59079661 3.36956742,9.564 3.38705895,9.53740678 C3.40170302,9.51508475 3.41644878,9.49286441 3.43144878,9.47079661 C3.44939793,9.44435593 3.46775386,9.41822034 3.48626234,9.39213559 C3.50166912,9.37042373 3.5170759,9.34876271 3.53283861,9.32735593 C3.55180471,9.30152542 3.57117759,9.27594915 3.59065217,9.25052542 C3.60677081,9.22947458 3.62283861,9.20842373 3.63931319,9.18762712 C3.65929624,9.16235593 3.67973691,9.13738983 3.70022844,9.11252542 C3.71695725,9.09218644 3.73368607,9.07184746 3.75077081,9.05176271 C3.77182166,9.02705085 3.79333014,9.00269492 3.81488946,8.97838983 C3.83227929,8.95876271 3.84956742,8.93908475 3.86726234,8.91976271 C3.88933014,8.89566102 3.91185556,8.87201695 3.93443183,8.84837288 C3.95243183,8.82945763 3.97033014,8.81049153 3.98863522,8.79183051 C4.01177081,8.76833898 4.03541488,8.74535593 4.0590081,8.72227119 C4.07751658,8.70422034 4.09587251,8.6859661 4.11468607,8.66816949 C4.13899115,8.64518644 4.16385556,8.62276271 4.18861827,8.60028814 C4.20753352,8.58315254 4.22619454,8.56581356 4.24536403,8.5489322 C4.2709403,8.52640678 4.29717759,8.50454237 4.32326234,8.48252542 C4.34238098,8.46640678 4.36129624,8.4500339 4.38066912,8.43416949 C4.40766912,8.41210169 4.43533014,8.39069492 4.46288946,8.36913559 C4.4821098,8.35413559 4.50102505,8.33877966 4.52044878,8.3240339 C4.54948268,8.30201695 4.57912675,8.28076271 4.60871997,8.25940678 C4.62738098,8.24588136 4.64568607,8.23205085 4.66460132,8.21877966 C4.69724539,8.19584746 4.73065217,8.17372881 4.76395725,8.15150847 C4.78038098,8.14057627 4.79644878,8.12923729 4.8129742,8.11845763 C4.85639793,8.09023729 4.90058437,8.0629322 4.9450759,8.03598305 C4.95199115,8.03181356 4.95870302,8.02733898 4.96566912,8.02316949 C5.01712675,7.99235593 5.06929624,7.96245763 5.1220759,7.93337288 C5.14012675,7.92345763 5.15868607,7.91415254 5.1769403,7.90444068 C5.2119742,7.88572881 5.24690641,7.86686441 5.28255047,7.8489661 C5.30538098,7.83747458 5.32877081,7.82669492 5.35180471,7.81555932 C5.38088946,7.80147458 5.40987251,7.78723729 5.43931319,7.77366102 C5.99227929,8.30186441 6.72992336,8.60089831 7.49558437,8.60089831 C8.26124539,8.60089831 8.9989403,8.30181356 9.55190641,7.77355932 C10.6313471,8.27313559 11.5148217,9.16952542 11.9944657,10.2595932 C12.0622962,10.4137627 12.2422454,10.4838814 12.3965674,10.416 C12.5507878,10.3481186 12.6208047,10.1680678 12.5529234,10.0138983 C12.0282793,8.82152542 11.1149064,7.86869492 9.95878776,7.29350847 C10.2942284,6.80145763 10.475703,6.22042373 10.475703,5.62083051 C10.475703,3.97759322 9.13882166,2.64071186 7.49558437,2.64071186 C7.32712675,2.64071186 7.19049963,2.77733898 7.19049963,2.94579661 C7.19049963,3.11425424 7.32712675,3.25088136 7.49558437,3.25088136 C8.80241488,3.25088136 9.86553352,4.31405085 9.86553352,5.62083051 C9.86553352,6.20516949 9.64836403,6.76784746 9.25409285,7.20508475 C9.254042,7.20513559 9.25399115,7.20518644 9.2539403,7.20523729 C8.80373691,7.70445763 8.16285556,7.99077966 7.49553352,7.99077966 C6.82821149,7.99077966 6.18727929,7.70445763 5.73712675,7.20523729 C5.7370759,7.20513559 5.7369742,7.20508475 5.73687251,7.2050339 C5.34265217,6.76764407 5.12553352,6.20511864 5.12553352,5.62088136 C5.12553352,4.98305085 5.37524539,4.38467797 5.82870302,3.93610169 C5.94849963,3.81757627 5.94951658,3.62440678 5.83099115,3.50466102 C5.71251658,3.38481356 5.51934708,3.38389831 5.39955047,3.50232203 C4.82939793,4.06622034 4.51536403,4.81861017 4.51536403,5.62067797 C4.51536403,6.21966102 4.69638098,6.80028814 5.03126234,7.29208475 C5.02826234,7.29355932 5.02536403,7.29518644 5.02241488,7.29671186 C4.99861827,7.30861017 4.97538098,7.32122034 4.95178776,7.33337288 C4.91563522,7.35208475 4.87938098,7.37069492 4.84373691,7.39016949 C4.81851658,7.40389831 4.79385556,7.41833898 4.76888946,7.43242373 C4.73558437,7.45128814 4.70222844,7.47005085 4.66938098,7.48952542 C4.64390641,7.50467797 4.61883861,7.52033898 4.59361827,7.53584746 C4.56209285,7.55527119 4.53056742,7.57464407 4.49949963,7.59462712 C4.47412675,7.61094915 4.44921149,7.62772881 4.42414369,7.64440678 C4.39399115,7.66449153 4.36388946,7.68467797 4.33419454,7.70532203 C4.30922844,7.72271186 4.28456742,7.74045763 4.25990641,7.75820339 C4.23092336,7.77910169 4.202042,7.80010169 4.17351658,7.82150847 C4.14905895,7.83986441 4.12490641,7.85847458 4.10080471,7.87718644 C4.07283861,7.89889831 4.0450759,7.92076271 4.01761827,7.94298305 C3.99382166,7.96220339 3.97022844,7.98167797 3.94673691,8.00125424 C3.91973691,8.02383051 3.8929403,8.04666102 3.86639793,8.06974576 C3.84336403,8.08972881 3.82048268,8.10986441 3.79780471,8.13025424 C3.77161827,8.15379661 3.74578776,8.17759322 3.7201098,8.20159322 C3.6979403,8.22228814 3.67582166,8.2430339 3.65395725,8.26413559 C3.62858437,8.28864407 3.60361827,8.31350847 3.57870302,8.33847458 C3.55744878,8.35977966 3.53619454,8.3810339 3.51534708,8.40264407 C3.49068607,8.42822034 3.46648268,8.45425424 3.44233014,8.48028814 C3.42214369,8.50205085 3.40180471,8.52371186 3.3819742,8.54583051 C3.35782166,8.57267797 3.33433014,8.60008475 3.31073691,8.62738983 C3.29177081,8.64935593 3.27265217,8.67111864 3.254042,8.69333898 C3.23009285,8.7219661 3.20690641,8.75115254 3.18356742,8.78023729 C3.16622844,8.80189831 3.14853352,8.82325424 3.13149963,8.84516949 C3.10699115,8.87669492 3.08329624,8.90883051 3.05949963,8.94086441 C3.04455047,8.961 3.02919454,8.98077966 3.01455047,9.00111864 C2.98444878,9.04281356 2.95531319,9.08511864 2.92643183,9.12762712 C2.91885556,9.13881356 2.91082166,9.14969492 2.90329624,9.1609322 C2.86734708,9.21462712 2.83241488,9.2689322 2.79839793,9.32384746 C2.78665217,9.34281356 2.77561827,9.36218644 2.76412675,9.38125424 C2.7421098,9.41781356 2.71999115,9.45432203 2.69878776,9.49138983 C2.68556742,9.51452542 2.67305895,9.5380678 2.66019454,9.56140678 C2.64163522,9.5949661 2.6229742,9.62842373 2.60517759,9.66238983 C2.59195725,9.68755932 2.57944878,9.7130339 2.56658437,9.73840678 C2.5500081,9.77115254 2.53338098,9.80384746 2.51746573,9.83694915 C2.50480471,9.86328814 2.49275386,9.8899322 2.48049963,9.91642373 C2.46544878,9.94911864 2.45034708,9.98176271 2.43590641,10.0147627 C2.4240081,10.0419661 2.41261827,10.0694237 2.40117759,10.0968305 C2.38739793,10.1297288 2.37371997,10.1626271 2.36060132,10.1957797 C2.34956742,10.2236441 2.33899115,10.251661 2.32841488,10.279678 C2.31590641,10.3129322 2.30355047,10.3462373 2.29165217,10.3797458 C2.28158437,10.4081695 2.27182166,10.4367458 2.26216064,10.4653729 C2.25082166,10.4989831 2.23978776,10.5326949 2.2291098,10.5666102 C2.2200081,10.5954407 2.21121149,10.6243729 2.20256742,10.6533559 C2.19239793,10.6875763 2.18258437,10.7218983 2.1730759,10.7563729 C2.165042,10.7854576 2.15716064,10.8145932 2.14958437,10.8438814 C2.14058437,10.8787119 2.132042,10.9136949 2.12370302,10.9487797 C2.11673691,10.9780678 2.10982166,11.0073051 2.10336403,11.0366949 C2.09553352,11.0722373 2.08826234,11.1079831 2.08114369,11.1437797 C2.07529624,11.1730678 2.06934708,11.2023559 2.06395725,11.2317966 C2.05729624,11.2683051 2.05129624,11.3050169 2.04534708,11.3417797 C2.04066912,11.3707627 2.03573691,11.3996949 2.03151658,11.4287797 C2.0259742,11.4667119 2.02129624,11.5048475 2.01651658,11.5429831 C2.0130081,11.5712542 2.00914369,11.5994746 2.006042,11.6278475 C2.00166912,11.6678136 1.99831319,11.7080339 1.99480471,11.7482542 C1.99246573,11.7750508 1.98966912,11.8017458 1.98773691,11.8286949 C1.98448268,11.8735932 1.98234708,11.9186949 1.98016064,11.9638475 C1.97909285,11.9862712 1.97741488,12.0085424 1.97660132,12.0310169 C1.97416064,12.0987458 1.97278776,12.1667288 1.97278776,12.2349661 C1.97278776,12.3086441 1.97527929,12.3783051 1.97827929,12.4552373 C1.97899115,12.4730339 1.98148268,12.490322 1.985042,12.5072034 C1.98534708,12.5085254 1.98549963,12.5098475 1.98580471,12.5111695 C1.98956742,12.5277966 1.99485556,12.5437627 2.00121149,12.5592203 C2.00182166,12.5607458 2.00238098,12.5622712 2.003042,12.5637966 C2.00960132,12.5790508 2.01743183,12.5935932 2.02627929,12.6074237 C2.02739793,12.6091525 2.02846573,12.6108814 2.02958437,12.6125593 C2.03868607,12.6261356 2.04880471,12.6388983 2.05983861,12.6507966 C2.06065217,12.651661 2.06121149,12.6527288 2.06202505,12.6535932 L2.10229624,12.6964576 C2.13270302,12.729 2.1631098,12.7614407 2.19483861,12.7931186 C3.65619454,14.2544746 5.57573691,14.9851525 7.49533014,14.9851525 C9.41492336,14.9851525 11.3344657,14.2544746 12.7958217,12.7931186 C12.8275505,12.7614407 12.8579573,12.7289492 12.888364,12.6964576 L12.9286352,12.6535932 C14.2806183,11.231339 15.0126183,9.36645763 14.9897878,7.40232203 C14.9670589,5.43427119 14.1878725,3.5839322 12.7959742,2.1920339 Z" id="Path"></path>
        </g>
    </g>
</svg>